<svg width="12" height="12" viewBox="0 0 12 12" fill="none" xmlns="http://www.w3.org/2000/svg">
<path d="M11.4688 1V9.125C11.4688 9.24932 11.4194 9.36855 11.3315 9.45646C11.2436 9.54436 11.1243 9.59375 11 9.59375C10.8757 9.59375 10.7565 9.54436 10.6686 9.45646C10.5807 9.36855 10.5313 9.24932 10.5313 9.125V2.13125L1.33128 11.3312C1.24242 11.414 1.12489 11.4591 1.00345 11.457C0.882012 11.4548 0.766146 11.4056 0.680262 11.3198C0.594379 11.2339 0.545184 11.118 0.543042 10.9966C0.540899 10.8751 0.585976 10.7576 0.668776 10.6687L9.86878 1.46875H2.87503C2.75071 1.46875 2.63148 1.41936 2.54357 1.33146C2.45566 1.24355 2.40628 1.12432 2.40628 1C2.40628 0.87568 2.45566 0.756451 2.54357 0.668544C2.63148 0.580636 2.75071 0.53125 2.87503 0.53125H11C11.1243 0.53125 11.2436 0.580636 11.3315 0.668544C11.4194 0.756451 11.4688 0.87568 11.4688 1Z" fill="black"/>
</svg>
